<?xml version="1.0" standalone="no"?>
<!DOCTYPE svg PUBLIC "-//W3C//DTD SVG 20010904//EN"
 "http://www.w3.org/TR/2001/REC-SVG-20010904/DTD/svg10.dtd">
<svg version="1.0" xmlns="http://www.w3.org/2000/svg"
 width="260.000000pt" height="260.000000pt" viewBox="0 0 260.000000 260.000000"
 preserveAspectRatio="xMidYMid meet">
<metadata>
Created by potrace 1.14, written by Peter Selinger 2001-2017
</metadata>
<g transform="translate(0.000000,260.000000) scale(0.100000,-0.100000)"
fill="#000000" stroke="none">
<path d="M1232 2584 c-108 -54 -278 -330 -323 -525 l-13 -56 -56 18 c-97 30
-213 42 -358 36 -205 -7 -298 -48 -323 -140 -30 -112 94 -371 265 -552 l61
-65 -48 -48 c-160 -156 -305 -439 -283 -555 19 -100 150 -157 363 -157 97 0
273 24 333 45 31 11 42 12 44 2 2 -7 12 -43 21 -80 23 -91 121 -286 187 -371
95 -123 178 -161 264 -120 108 52 280 328 325 525 l13 56 57 -18 c93 -29 222
-42 364 -36 198 7 291 49 316 140 30 111 -91 365 -263 552 l-60 65 65 70 c160
169 284 421 263 533 -14 74 -76 118 -203 143 -125 24 -318 15 -455 -21 -30 -7
-60 -15 -67 -17 -8 -2 -19 24 -32 72 -10 41 -48 134 -84 205 -130 259 -253
358 -373 299z m139 -756 l56 -62 79 27 79 27 18 -21 c9 -12 17 -33 17 -48 0
-44 20 -100 39 -110 10 -6 41 -13 70 -17 29 -4 61 -14 72 -23 20 -16 20 -17
-8 -95 l-28 -78 63 -57 c34 -31 62 -63 62 -71 0 -8 -28 -40 -62 -71 l-63 -57
28 -78 28 -79 -22 -17 c-12 -10 -35 -18 -53 -19 -17 0 -47 -5 -66 -12 -38 -13
-58 -52 -59 -113 -1 -18 -9 -41 -18 -53 l-18 -22 -79 28 -78 28 -57 -63 c-31
-34 -63 -62 -71 -62 -8 0 -40 28 -71 62 l-57 63 -78 -28 c-78 -28 -79 -28 -95
-8 -9 11 -19 43 -23 72 -4 29 -11 60 -17 70 -10 19 -66 39 -110 39 -15 0 -36
8 -48 18 l-21 17 27 79 27 79 -62 56 c-34 31 -62 63 -62 71 0 8 28 40 62 71
l62 56 -27 79 c-27 78 -27 79 -8 95 11 9 46 20 76 24 72 9 91 28 100 100 4 30
15 65 24 76 16 19 17 19 95 -8 l80 -27 55 62 c30 34 62 62 70 62 9 0 41 -28
72 -62z"/>
<path d="M1227 1414 c-4 -4 -7 -15 -7 -25 0 -10 -14 -34 -31 -54 l-32 -36 27
-28 c15 -15 31 -41 35 -57 6 -23 13 -28 32 -26 31 3 67 3 98 0 19 -2 26 3 32
26 4 16 20 42 35 57 l28 29 -28 29 c-15 15 -31 41 -35 57 -6 23 -13 28 -32 27
-13 -2 -33 -4 -44 -5 -11 -1 -31 2 -45 6 -14 4 -29 4 -33 0z"/>
</g>
</svg>
