<?xml version="1.0" encoding="UTF-8" standalone="no"?>
<svg width="16" height="16" viewBox="0 0 16 16" version="1.1" xmlns:xlink="http://www.w3.org/1999/xlink" xmlns="http://www.w3.org/2000/svg">
  <defs>
   <path id="p" fill="#000" d="m 8.0553466,7.9998949 c -1.122739,0.02006 -2.499524,-2.832312 -2.499517,-3.955231 8e-6,-1.1410869 1.358612,-4.02411397 2.499517,-4.04449896545 C 9.1780866,-0.01989507 10.554872,2.832477 10.554865,3.9553969 c -8e-6,1.141087 -1.3586134,4.024114 -2.4995184,4.044498 z"/>
  </defs>
  <use xlink:href="#p" mask="url(#m)"/>
  <use xlink:href="#p" mask="url(#m)" transform="rotate(60,8,8)"/>
  <use xlink:href="#p" mask="url(#m)" transform="rotate(120,8,8)"/>
  <use xlink:href="#p" mask="url(#m)" transform="rotate(180,8,8)"/>
  <use xlink:href="#p" mask="url(#m)" transform="rotate(240,8,8)"/>
  <use xlink:href="#p" mask="url(#m)" transform="rotate(300,8,8)"/>
  <mask id="m">
    <rect width="100%" height="100%" fill="#fff"/>
    <path fill="#000" d="m 7.9999999,11.666544 c -0.26797,0 -0.5288072,-0.657652 -0.7876462,-0.727009 -0.258839,-0.06936 -0.813557,0.36977 -1.045626,0.235785 -0.232068,-0.133985 -0.129134,-0.833947 -0.318617,-1.023431 -0.189483,-0.1894836 -0.889445,-0.08655 -1.02343,-0.3186176 -0.133985,-0.232069 0.30514,-0.786786 0.235784,-1.045625 -0.06936,-0.25884 -0.727008,-0.519676 -0.727008,-0.787646 0,-0.26797 0.657652,-0.528807 0.727008,-0.787646 0.06936,-0.25884 -0.36977,-0.813557 -0.235785,-1.045626 0.133985,-0.232069 0.833947,-0.129134 1.023431,-0.318617 0.189483,-0.189484 0.08655,-0.889446 0.318617,-1.023431 0.232069,-0.133985 0.786787,0.30514 1.045626,0.235785 0.258839,-0.06936 0.5196762,-0.727009 0.7876462,-0.727009 0.26797,0 0.528807,0.657653 0.787646,0.727009 0.258839,0.06936 0.813557,-0.36977 1.045625,-0.235785 0.2320691,0.133985 0.129134,0.833947 0.3186181,1.02343 0.189483,0.189484 0.889446,0.08655 1.02343,0.318618 0.133985,0.232069 -0.30514,0.786786 -0.235784,1.045625 0.06936,0.25884 0.727008,0.519676 0.727008,0.787646 0,0.26797 -0.657652,0.528807 -0.727008,0.787647 -0.06936,0.258839 0.369769,0.813556 0.235784,1.045625 -0.133984,0.2320696 -0.833947,0.129134 -1.02343,0.3186176 -0.1894841,0.189484 -0.08655,0.889446 -0.3186171,1.023431 -0.232069,0.133985 -0.786787,-0.30514 -1.045626,-0.235785 -0.258839,0.06936 -0.519676,0.727009 -0.787646,0.727009 z"/>
  </mask>
  <path fill="#000" d="m 8.8333079,7.9999994 c 0,0.04318 -0.284902,0.266763 -0.306492,0.304158 -0.02159,0.03739 -0.07277,0.395918 -0.110162,0.417508 -0.03739,0.02159 -0.373474,-0.113351 -0.416654,-0.113351 -0.04318,0 -0.379258,0.134941 -0.416653,0.113351 -0.03739,-0.02159 -0.08857,-0.380113 -0.1101622,-0.417508 -0.02159,-0.0374 -0.306492,-0.260978 -0.306492,-0.304157 0,-0.04318 0.284902,-0.266763 0.306492,-0.304158 0.02159,-0.03739 0.07277,-0.395918 0.1101622,-0.417508 0.03739,-0.02159 0.373474,0.113351 0.416653,0.113351 0.04318,0 0.379259,-0.134941 0.416653,-0.113351 0.0374,0.02159 0.08857,0.380114 0.110163,0.417508 0.02159,0.0374 0.306492,0.260978 0.306492,0.304157 z"/>
</svg>
