<?xml version="1.0" encoding="UTF-8" standalone="no"?>
<!-- Created with Inkscape (http://www.inkscape.org/) -->

<svg
   width="111.78117mm"
   height="127.00168mm"
   viewBox="0 0 111.78117 127.00168"
   version="1.1"
   id="svg5"
   inkscape:version="1.2.1 (9c6d41e410, 2022-07-14)"
   sodipodi:docname="scott-free-software-daffodil.svg"
   xmlns:inkscape="http://www.inkscape.org/namespaces/inkscape"
   xmlns:sodipodi="http://sodipodi.sourceforge.net/DTD/sodipodi-0.dtd"
   xmlns="http://www.w3.org/2000/svg"
   xmlns:svg="http://www.w3.org/2000/svg">
  <sodipodi:namedview
     id="namedview7"
     pagecolor="#ffffff"
     bordercolor="#000000"
     borderopacity="0.25"
     inkscape:showpageshadow="2"
     inkscape:pageopacity="0.0"
     inkscape:pagecheckerboard="0"
     inkscape:deskcolor="#d1d1d1"
     inkscape:document-units="mm"
     showgrid="false"
     inkscape:zoom="1.5358306"
     inkscape:cx="320.34784"
     inkscape:cy="244.81867"
     inkscape:window-width="1920"
     inkscape:window-height="1011"
     inkscape:window-x="1920"
     inkscape:window-y="0"
     inkscape:window-maximized="1"
     inkscape:current-layer="layer1">
    <inkscape:grid
       type="xygrid"
       id="grid22511"
       originx="-0.99483521"
       originy="0.00083555642" />
  </sodipodi:namedview>
  <defs
     id="defs2" />
  <g
     inkscape:label="Layer 1"
     inkscape:groupmode="layer"
     id="layer1"
     transform="translate(-0.99483528,8.3555642e-4)">
    <g
       id="g22932"
       transform="translate(-6.6145814,-6.6145763)">
      <path
         sodipodi:type="star"
         style="fill:#ffff33;fill-opacity:1;stroke-width:0.264583"
         id="path225"
         inkscape:flatsided="false"
         sodipodi:sides="2"
         sodipodi:cx="96.069656"
         sodipodi:cy="101.04658"
         sodipodi:r1="57.884354"
         sodipodi:r2="36.177715"
         sodipodi:arg1="1.5707963"
         sodipodi:arg2="3.1237376"
         inkscape:rounded="0.24"
         inkscape:randomized="0"
         d="M 96.069658,158.93093 C 79.821844,159.22124 59.897603,117.94291 59.897708,101.6925 59.897814,85.179168 79.55896,43.457225 96.069655,43.162224 c 16.247815,-0.290305 36.172055,40.988025 36.171955,57.238436 -1.1e-4,16.51333 -19.66126,58.23527 -36.171952,58.53027 z"
         inkscape:transform-center-x="0.0044634679"
         inkscape:transform-center-y="0.018123136"
         transform="matrix(0.54850752,0,0,0.54850752,10.80507,-17.060228)" />
      <path
         sodipodi:type="star"
         style="fill:#ffff33;fill-opacity:1;stroke-width:0.264583"
         id="path225-1"
         inkscape:flatsided="false"
         sodipodi:sides="2"
         sodipodi:cx="96.069656"
         sodipodi:cy="101.04658"
         sodipodi:r1="57.884354"
         sodipodi:r2="36.177715"
         sodipodi:arg1="1.5707963"
         sodipodi:arg2="3.1237376"
         inkscape:rounded="0.24"
         inkscape:randomized="0"
         d="M 96.069658,158.93093 C 79.821844,159.22124 59.897603,117.94291 59.897708,101.6925 59.897814,85.179168 79.55896,43.457225 96.069655,43.162224 c 16.247815,-0.290305 36.172055,40.988025 36.171955,57.238436 -1.1e-4,16.51333 -19.66126,58.23527 -36.171952,58.53027 z"
         inkscape:transform-center-x="-0.017925826"
         inkscape:transform-center-y="-0.0052007402"
         transform="matrix(-0.27425376,-0.47502145,0.47502145,-0.27425376,14.351864,159.33714)" />
      <path
         sodipodi:type="star"
         style="fill:#ffff33;fill-opacity:1;stroke-width:0.264583"
         id="path225-2"
         inkscape:flatsided="false"
         sodipodi:sides="2"
         sodipodi:cx="96.069656"
         sodipodi:cy="101.04658"
         sodipodi:r1="57.884354"
         sodipodi:r2="36.177715"
         sodipodi:arg1="1.5707963"
         sodipodi:arg2="3.1237376"
         inkscape:rounded="0.24"
         inkscape:randomized="0"
         d="M 96.069658,158.93093 C 79.821844,159.22124 59.897603,117.94291 59.897708,101.6925 59.897814,85.179168 79.55896,43.457225 96.069655,43.162224 c 16.247815,-0.290305 36.172055,40.988025 36.171955,57.238436 -1.1e-4,16.51333 -19.66126,58.23527 -36.171952,58.53027 z"
         inkscape:transform-center-x="0.017929689"
         inkscape:transform-center-y="0.0051968051"
         transform="matrix(0.27425376,0.47502145,-0.47502145,0.27425376,112.64814,-19.10797)" />
      <path
         sodipodi:type="star"
         style="fill:#ffff33;fill-opacity:1;stroke-width:0.264583"
         id="path225-9"
         inkscape:flatsided="false"
         sodipodi:sides="2"
         sodipodi:cx="96.069656"
         sodipodi:cy="101.04658"
         sodipodi:r1="57.884354"
         sodipodi:r2="36.177715"
         sodipodi:arg1="1.5707963"
         sodipodi:arg2="3.1237376"
         inkscape:rounded="0.24"
         inkscape:randomized="0"
         d="M 96.069658,158.93093 C 79.821844,159.22124 59.897603,117.94291 59.897708,101.6925 59.897814,85.179168 79.55896,43.457225 96.069655,43.162224 c 16.247815,-0.290305 36.172055,40.988025 36.171955,57.238436 -1.1e-4,16.51333 -19.66126,58.23527 -36.171952,58.53027 z"
         inkscape:transform-center-x="0.013468653"
         inkscape:transform-center-y="-0.012926498"
         transform="matrix(-0.27425376,0.47502145,-0.47502145,-0.27425376,165.34307,68.066841)" />
      <path
         sodipodi:type="star"
         style="fill:#ffff33;fill-opacity:1;stroke-width:0.264583"
         id="path225-6"
         inkscape:flatsided="false"
         sodipodi:sides="2"
         sodipodi:cx="96.069656"
         sodipodi:cy="101.04658"
         sodipodi:r1="57.884354"
         sodipodi:r2="36.177715"
         sodipodi:arg1="1.5707963"
         sodipodi:arg2="3.1237376"
         inkscape:rounded="0.24"
         inkscape:randomized="0"
         d="M 96.069658,158.93093 C 79.821844,159.22124 59.897603,117.94291 59.897708,101.6925 59.897814,85.179168 79.55896,43.457225 96.069655,43.162224 c 16.247815,-0.290305 36.172055,40.988025 36.171955,57.238436 -1.1e-4,16.51333 -19.66126,58.23527 -36.171952,58.53027 z"
         inkscape:transform-center-x="-0.0044666043"
         inkscape:transform-center-y="-0.018128071"
         transform="matrix(-0.54850752,0,0,-0.54850752,116.19493,157.28939)" />
      <path
         sodipodi:type="star"
         style="fill:#ffff33;fill-opacity:1;stroke-width:0.264583"
         id="path225-27"
         inkscape:flatsided="false"
         sodipodi:sides="2"
         sodipodi:cx="96.069656"
         sodipodi:cy="101.04658"
         sodipodi:r1="57.884354"
         sodipodi:r2="36.177715"
         sodipodi:arg1="1.5707963"
         sodipodi:arg2="3.1237376"
         inkscape:rounded="0.24"
         inkscape:randomized="0"
         d="M 96.069658,158.93093 C 79.821844,159.22124 59.897603,117.94291 59.897708,101.6925 59.897814,85.179168 79.55896,43.457225 96.069655,43.162224 c 16.247815,-0.290305 36.172055,40.988025 36.171955,57.238436 -1.1e-4,16.51333 -19.66126,58.23527 -36.171952,58.53027 z"
         inkscape:transform-center-x="-0.01346379"
         inkscape:transform-center-y="0.012926863"
         transform="matrix(0.27425376,-0.47502145,0.47502145,0.27425376,-38.343066,72.162326)" />
    </g>
    <path
       sodipodi:type="star"
       style="fill:#ffff80;fill-opacity:1;stroke-width:0.264583"
       id="path22805"
       inkscape:flatsided="false"
       sodipodi:sides="6"
       sodipodi:cx="63.5"
       sodipodi:cy="68.791664"
       sodipodi:r1="55.562496"
       sodipodi:r2="17.900934"
       sodipodi:arg1="-1.5707963"
       sodipodi:arg2="-1.0471975"
       inkscape:rounded="0.1"
       inkscape:randomized="0"
       d="m 63.500001,13.229168 c 4.104755,0 5.395645,38.007455 8.950467,40.059833 3.554822,2.052377 37.115692,-15.833406 39.168062,-12.278584 2.05238,3.554822 -30.217596,23.676493 -30.217596,27.781248 0,4.104755 32.269976,24.226427 30.217596,27.781249 -2.05238,3.554826 -35.613242,-14.330963 -39.168064,-12.278586 -3.554821,2.052378 -4.845713,40.059832 -8.950467,40.059832 -4.104755,0 -5.395645,-38.007455 -8.950467,-40.059833 -3.554822,-2.052377 -37.115689,15.833403 -39.168066,12.278584 -2.052377,-3.554822 30.2176,-23.676493 30.2176,-27.781248 0,-4.104754 -32.269976,-24.226427 -30.217598,-27.781248 2.052377,-3.554822 35.613244,14.330962 39.168066,12.278585 3.554821,-2.052377 4.845713,-40.059832 8.950467,-40.059832 z"
       transform="matrix(1.0238096,0,0,1.0238096,-8.1264895,-6.9295595)" />
    <path
       sodipodi:type="star"
       style="fill:#ffd326;fill-opacity:1;stroke-width:0.264583"
       id="path12996"
       inkscape:flatsided="false"
       sodipodi:sides="12"
       sodipodi:cx="84.296631"
       sodipodi:cy="71.380943"
       sodipodi:r1="56.275768"
       sodipodi:r2="46.708885"
       sodipodi:arg1="1.5707963"
       sodipodi:arg2="1.8325957"
       inkscape:rounded="0.25"
       inkscape:randomized="0"
       d="m 84.296632,127.65671 c -4.112925,0 -8.116368,-10.09394 -12.08915,-11.15845 -3.972781,-1.0645 -12.486836,5.67539 -16.048734,3.61893 -3.561898,-2.05646 -1.982008,-12.7998 -4.890286,-15.70808 -2.908278,-2.90827 -13.651612,-1.32838 -15.708075,-4.890281 -2.056463,-3.561898 4.683429,-12.075955 3.618926,-16.048736 -1.064504,-3.972781 -11.15845,-7.976223 -11.15845,-12.089148 0,-4.112926 10.093946,-8.116369 11.158449,-12.08915 1.064504,-3.972781 -5.67539,-12.486836 -3.618927,-16.048735 2.056463,-3.561898 12.799798,-1.982008 15.708076,-4.890286 2.908277,-2.908277 1.328386,-13.651612 4.890284,-15.708075 3.561899,-2.056463 12.075955,4.68343 16.048736,3.618926 3.972781,-1.064504 7.976223,-11.15845 12.089148,-11.15845 4.112926,0 8.116369,10.093946 12.08915,11.15845 3.972781,1.064503 12.486841,-5.67539 16.048731,-3.618927 3.5619,2.056462 1.98201,12.799798 4.89029,15.708075 2.90828,2.908278 13.65161,1.328387 15.70808,4.890285 2.05646,3.561898 -4.68343,12.075954 -3.61893,16.048736 1.0645,3.972781 11.15845,7.976222 11.15845,12.089148 0,4.112926 -10.09395,8.116368 -11.15845,12.08915 -1.0645,3.972781 5.67539,12.486836 3.61893,16.048734 -2.05647,3.561894 -12.7998,1.982004 -15.70808,4.890284 -2.90828,2.90828 -1.32839,13.65161 -4.89028,15.70808 -3.5619,2.05646 -12.07596,-4.68343 -16.048739,-3.61893 -3.972781,1.06451 -7.976223,11.15845 -12.089149,11.15845 z"
       transform="matrix(0.51717051,0,0,0.51717051,13.289686,26.583888)" />
    <path
       sodipodi:type="star"
       style="fill:#ffff33;fill-opacity:1;stroke-width:0.264583"
       id="path19356"
       inkscape:flatsided="false"
       sodipodi:sides="6"
       sodipodi:cx="99.271515"
       sodipodi:cy="87.207291"
       sodipodi:r1="8.5148621"
       sodipodi:r2="6.2158494"
       sodipodi:arg1="-2.09661e-07"
       sodipodi:arg2="0.52359859"
       inkscape:rounded="0.1"
       inkscape:randomized="0"
       d="m 107.78638,87.207289 c 0,0.441217 -2.91117,2.72582 -3.13178,3.107925 -0.22061,0.382105 -0.74355,4.045554 -1.12565,4.266163 -0.38211,0.220608 -3.816217,-1.158237 -4.257434,-1.158237 -0.441217,0 -3.875326,1.378847 -4.257431,1.158238 -0.382105,-0.220608 -0.905044,-3.884057 -1.125653,-4.266162 -0.220609,-0.382105 -3.131779,-2.666707 -3.131779,-3.107924 0,-0.441216 2.911169,-2.72582 3.131778,-3.107925 0.220608,-0.382105 0.743546,-4.045554 1.125651,-4.266162 0.382105,-0.220609 3.816215,1.158236 4.257432,1.158236 0.441217,0 3.875326,-1.378846 4.257426,-1.158238 0.38211,0.220608 0.90505,3.884057 1.12566,4.266162 0.22061,0.382105 3.13178,2.666707 3.13178,3.107924 z"
       transform="matrix(0.77682796,0,0,0.77682796,-20.231467,-4.2450531)" />
  </g>
</svg>
