<?xml version="1.0" encoding="UTF-8" standalone="no"?>
<svg width="111.7812" height="127.00168" viewBox="0 0 111.7812 127.00168" version="1.1" xmlns="http://www.w3.org/2000/svg" xmlns:xlink="http://www.w3.org/1999/xlink">
  <defs>
    <path id="p" fill="#ff3" d="M 55.890595,63.500838 C 46.978547,63.660075 36.049951,41.018601 36.050008,32.105129 36.050066,23.047442 46.834353,0.16264288 55.890593,8.3187583e-4 64.802642,-0.15840212 75.731237,22.483072 75.731183,31.396545 75.731122,40.454231 64.946834,63.339029 55.890595,63.500838 Z"/>
    <path id="h" fill="#ffd326" d="M 55.890593,8.3187583e-4 V 63.500831 c 9.05624,-0.16181 19.840072,-23.046822 19.840132,-32.104496 6e-5,-8.913464 -10.928092,-31.55473713 -19.840132,-31.39550312417 z"/>
  </defs>
  <g mask="url(#m)">
    <use xlink:href="#p"/>
    <use xlink:href="#p" transform="rotate(60,55.8906,63.50084)"/>
    <use xlink:href="#p" transform="rotate(120,55.8906,63.50084)"/>
    <use xlink:href="#p" transform="rotate(180,55.8906,63.50084)"/>
    <use xlink:href="#p" transform="rotate(240,55.8906,63.50084)"/>
    <use xlink:href="#p" transform="rotate(300,55.8906,63.50084)"/>
  </g>
  <g mask="url(#m)">
    <use xlink:href="#h"/>
    <use xlink:href="#h" transform="rotate(60,55.8906,63.50084)"/>
    <use xlink:href="#h" transform="rotate(120,55.8906,63.50084)"/>
    <use xlink:href="#h" transform="rotate(180,55.8906,63.50084)"/>
    <use xlink:href="#h" transform="rotate(240,55.8906,63.50084)"/>
    <use xlink:href="#h" transform="rotate(300,55.8906,63.50084)"/>
  </g>
  <mask id="m">
    <rect width="100%" height="100%" fill="#fff"/>
    <path fill="#000" d="m 56.704109,92.605501 c -2.127084,0 -4.197546,-5.220288 -6.252152,-5.770821 -2.054605,-0.550528 -6.457823,2.935144 -8.299932,1.871603 -1.842109,-1.06354 -1.025036,-6.619679 -2.529112,-8.123755 -1.504075,-1.504072 -7.060211,-0.686999 -8.123753,-2.529109 -1.063542,-1.842109 2.422131,-6.245328 1.871602,-8.299933 -0.55053,-2.054606 -5.770821,-4.125068 -5.770821,-6.252151 0,-2.127084 5.220291,-4.197547 5.77082,-6.252152 0.55053,-2.054605 -2.935144,-6.457823 -1.871602,-8.299933 1.063542,-1.842108 6.619678,-1.025036 8.123754,-2.529111 1.504075,-1.504075 0.687002,-7.060211 2.52911,-8.123753 1.84211,-1.063542 6.245328,2.422131 8.299933,1.871601 2.054606,-0.55053 4.125068,-5.770821 6.252151,-5.770821 2.127084,0 4.197547,5.220291 6.252152,5.770821 2.054605,0.55053 6.457826,-2.935144 8.29993,-1.871602 1.842108,1.063542 1.025038,6.619678 2.529118,8.123753 1.50407,1.504076 7.06021,0.687003 8.12375,2.529111 1.06354,1.842109 -2.42213,6.245328 -1.8716,8.299933 0.55053,2.054606 5.77082,4.125067 5.77082,6.252151 0,2.127084 -5.22029,4.197546 -5.77082,6.252152 -0.55053,2.054605 2.93514,6.457823 1.8716,8.299932 -1.06354,1.842107 -6.61968,1.025034 -8.12375,2.529111 -1.50408,1.504076 -0.68701,7.06021 -2.529112,8.123755 -1.84211,1.063541 -6.245331,-2.422131 -8.299935,-1.871603 -2.054605,0.550533 -4.125067,5.770821 -6.252151,5.770821 z"/>
  </mask>
  <path fill="#ff3" d="m 63.318711,63.501332 c 0,0.342751 -2.261484,2.117499 -2.432861,2.41433 -0.171376,0.29683 -0.577612,3.142707 -0.874438,3.314083 -0.296835,0.171375 -2.964552,-0.899753 -3.307303,-0.899753 -0.34275,0 -3.010469,1.07113 -3.3073,0.899754 -0.296831,-0.171375 -0.703065,-3.017252 -0.874441,-3.314083 -0.171376,-0.29683 -2.43286,-2.071578 -2.43286,-2.414328 0,-0.34275 2.261484,-2.117499 2.432859,-2.41433 0.171375,-0.29683 0.577609,-3.142707 0.87444,-3.314082 0.29683,-0.171376 2.96455,0.899752 3.307301,0.899752 0.34275,0 3.010469,-1.071129 3.307296,-0.899754 0.296834,0.171375 0.70307,3.017252 0.874446,3.314083 0.171377,0.29683 2.432861,2.071578 2.432861,2.414328 z"/>
</svg>
