<?xml version="1.0" encoding="UTF-8" standalone="no"?>
<svg
  width="111.7812"
  height="127.00168"
  viewBox="0 0 111.7812 127.00168"
  version="1.1"
  xmlns="http://www.w3.org/2000/svg"
  xmlns:svg="http://www.w3.org/2000/svg">
  <g id="base" mask="url(#mask)">
    <path style="fill:#ff3" d="m 55.890594,63.500824 c 4.318121,-7.797678 29.390511,-5.941383 37.109775,-1.484597 7.844161,4.528894 22.270831,25.310759 17.882841,33.234599 -4.31812,7.797684 -29.39051,5.941384 -37.109776,1.484598 -7.844156,-4.528895 -22.270828,-25.310762 -17.88284,-33.2346 z"/>
    <path style="fill:#ff3" d="M 0.89803107,95.251338 C -3.6958965,87.612896 10.447898,66.827717 18.16722,62.371031 c 7.844216,-4.528793 33.055177,-6.631727 37.723429,1.130303 4.593925,7.638443 -9.549869,28.423622 -17.26919,32.88031 -7.844216,4.528786 -33.0551772,6.631716 -37.72342793,-1.130306 z"/>
    <path style="fill:#ff3" d="M 55.890593,63.500831 C 51.572468,71.29851 26.500078,69.442214 18.780813,64.985428 10.936656,60.456535 -3.490019,39.674669 0.897969,31.750829 c 4.318124,-7.797677 29.390513,-5.941382 37.10978,-1.484598 7.844156,4.528895 22.270824,25.310762 17.882844,33.2346 z"/>
    <path style="fill:#ff3" d="M 55.890595,63.500838 C 46.978547,63.660075 36.049951,41.018601 36.050008,32.105129 36.050066,23.047442 46.834353,0.16264288 55.890593,8.3187583e-4 64.802642,-0.15840212 75.731237,22.483072 75.731183,31.396545 75.731122,40.454231 64.946834,63.339029 55.890595,63.500838 Z"/>
    <path style="fill:#ff3" d="m 110.88321,31.750827 c 4.59393,7.638441 -9.54987,28.42362 -17.269188,32.880306 -7.844216,4.528793 -33.055177,6.631727 -37.723429,-1.130302 -4.593925,-7.638443 9.549869,-28.423622 17.26919,-32.880311 7.844216,-4.52879 33.055177,-6.631721 37.723427,1.130307 z"/>
    <path style="fill:#ff3" d="m 55.890594,63.500824 c 8.912048,-0.159237 19.840644,22.482237 19.840586,31.395709 -5.8e-5,9.057687 -10.784344,31.942487 -19.840585,32.104297 -8.912049,0.15923 -19.840644,-22.48224 -19.840589,-31.395713 6e-5,-9.057685 10.784349,-31.942483 19.840588,-32.104293 z"/>
  </g>
  <g id="highlights" mask="url(#mask)">
    <path style="fill:#ffd326" d="M 0.89802958,31.751336 55.890649,63.501334 C 60.278639,55.577494 45.851539,34.795914 38.007399,30.26703 30.288149,25.810247 5.2161496,23.953666 0.89802958,31.751336 Z"/>
    <path style="fill:#ffd326" d="M 55.890593,8.3187583e-4 V 63.500831 c 9.05624,-0.16181 19.840072,-23.046822 19.840132,-32.104496 6e-5,-8.913464 -10.928092,-31.55473713 -19.840132,-31.39550312417 z"/>
    <path style="fill:#ffd326" d="M 0.89798358,95.250827 55.890593,63.500831 c -4.66825,-7.76203 -29.87917,-5.65861 -37.72337,-1.12982 -7.71932,4.45668 -21.8631594,25.241376 -17.26923942,32.879816 z"/>
    <path style="fill:#ffd326" d="M 55.890593,127.00083 V 63.500831 c -9.05624,0.16181 -19.84007,23.046816 -19.84013,32.104486 -6e-5,8.913473 10.92809,31.554743 19.84013,31.395513 z"/>
    <path style="fill:#ffd326" d="M 110.8832,95.250827 55.890593,63.500831 c -4.38799,7.923839 10.0391,28.705416 17.883242,33.234296 7.71926,4.456793 32.791245,6.313373 37.109365,-1.4843 z"/>
    <path style="fill:#ffd326" d="M 110.88325,31.751335 55.890649,63.501334 c 4.66825,7.762029 29.879166,5.658594 37.723376,1.129809 7.719305,-4.45668 21.863145,-25.241372 17.269225,-32.879808 z"/>
  </g>
  <mask id="mask">
    <rect width="100%" height="100%" fill="#fff" />
    <path style="fill:#000" d="m 56.704109,92.605501 c -2.127084,0 -4.197546,-5.220288 -6.252152,-5.770821 -2.054605,-0.550528 -6.457823,2.935144 -8.299932,1.871603 -1.842109,-1.06354 -1.025036,-6.619679 -2.529112,-8.123755 -1.504075,-1.504072 -7.060211,-0.686999 -8.123753,-2.529109 -1.063542,-1.842109 2.422131,-6.245328 1.871602,-8.299933 -0.55053,-2.054606 -5.770821,-4.125068 -5.770821,-6.252151 0,-2.127084 5.220291,-4.197547 5.77082,-6.252152 0.55053,-2.054605 -2.935144,-6.457823 -1.871602,-8.299933 1.063542,-1.842108 6.619678,-1.025036 8.123754,-2.529111 1.504075,-1.504075 0.687002,-7.060211 2.52911,-8.123753 1.84211,-1.063542 6.245328,2.422131 8.299933,1.871601 2.054606,-0.55053 4.125068,-5.770821 6.252151,-5.770821 2.127084,0 4.197547,5.220291 6.252152,5.770821 2.054605,0.55053 6.457826,-2.935144 8.29993,-1.871602 1.842108,1.063542 1.025038,6.619678 2.529118,8.123753 1.50407,1.504076 7.06021,0.687003 8.12375,2.529111 1.06354,1.842109 -2.42213,6.245328 -1.8716,8.299933 0.55053,2.054606 5.77082,4.125067 5.77082,6.252151 0,2.127084 -5.22029,4.197546 -5.77082,6.252152 -0.55053,2.054605 2.93514,6.457823 1.8716,8.299932 -1.06354,1.842107 -6.61968,1.025034 -8.12375,2.529111 -1.50408,1.504076 -0.68701,7.06021 -2.529112,8.123755 -1.84211,1.063541 -6.245331,-2.422131 -8.299935,-1.871603 -2.054605,0.550533 -4.125067,5.770821 -6.252151,5.770821 z"/>
  </mask>
  <path id="pistil" style="fill:#ff3" d="m 63.318711,63.501332 c 0,0.342751 -2.261484,2.117499 -2.432861,2.41433 -0.171376,0.29683 -0.577612,3.142707 -0.874438,3.314083 -0.296835,0.171375 -2.964552,-0.899753 -3.307303,-0.899753 -0.34275,0 -3.010469,1.07113 -3.3073,0.899754 -0.296831,-0.171375 -0.703065,-3.017252 -0.874441,-3.314083 -0.171376,-0.29683 -2.43286,-2.071578 -2.43286,-2.414328 0,-0.34275 2.261484,-2.117499 2.432859,-2.41433 0.171375,-0.29683 0.577609,-3.142707 0.87444,-3.314082 0.29683,-0.171376 2.96455,0.899752 3.307301,0.899752 0.34275,0 3.010469,-1.071129 3.307296,-0.899754 0.296834,0.171375 0.70307,3.017252 0.874446,3.314083 0.171377,0.29683 2.432861,2.071578 2.432861,2.414328 z"/>
</svg>
